<?xml version="1.0" encoding="iso-8859-1"?>
<!-- Generator: Adobe Illustrator 18.0.0, SVG Export Plug-In . SVG Version: 6.00 Build 0)  -->
<!DOCTYPE svg PUBLIC "-//W3C//DTD SVG 1.1//EN" "http://www.w3.org/Graphics/SVG/1.1/DTD/svg11.dtd">
<svg version="1.1" id="Capa_1" xmlns="http://www.w3.org/2000/svg" xmlns:xlink="http://www.w3.org/1999/xlink" x="0px" y="0px"
	 viewBox="0 0 404 404" style="enable-background:new 0 0 404 404;" xml:space="preserve">
<g>
	<path d="M401.813,153.367l0.004-0.005l-23.784-17.977l1.944-5.329c0.5-1.371,0.436-2.883-0.18-4.206s-1.73-2.347-3.101-2.847
		l-29.109-10.622L205.316,4.872c-1.962-1.482-4.67-1.482-6.632,0l-47.453,35.856L86.435,17.083
		c-2.853-1.042-6.011,0.428-7.052,3.281l-37.629,103.1l-39.57,29.898l0.003,0.005C0.861,154.371,0,155.958,0,157.75v236.99
		c0,3.038,2.462,5.5,5.5,5.5h393c3.038,0,5.5-2.462,5.5-5.5V157.75C404,155.958,403.139,154.371,401.813,153.367z M21.901,163.25
		h5.335l-1.153,3.16L21.901,163.25z M31.251,152.25h-9.348l12.909-9.753L31.251,152.25z M153.182,276.246L11,383.692V168.801
		L153.182,276.246z M202.003,253.14l180.1,136.1H21.904L202.003,253.14z M250.821,276.244L393,168.801v214.886L250.821,276.244z
		 M367.865,163.25h14.234l-19.652,14.851L367.865,163.25z M382.102,152.25h-10.223l2.21-6.056L382.102,152.25z M202,16.154
		l110.302,83.352L163.536,45.219L202,16.154z M87.831,29.302l279.926,102.149l-21.477,58.867L241.698,269.35l-36.379-27.491
		c-1.962-1.482-4.67-1.482-6.632,0l-36.383,27.494L35.261,173.346L87.831,29.302z"/>
	<path d="M95.863,105.677l14.284,5.212l-14.699,6.84c-2.754,1.282-3.948,4.553-2.667,7.307c0.932,2.003,2.917,3.181,4.99,3.181
		c0.777,0,1.566-0.166,2.317-0.515l24.673-11.48l4.367,1.594l-1.594,4.367l-24.673,11.48c-2.754,1.282-3.948,4.553-2.667,7.307
		s4.553,3.946,7.307,2.667l14.699-6.84l-5.213,14.284c-1.042,2.854,0.428,6.011,3.281,7.052c0.622,0.228,1.259,0.335,1.885,0.335
		c2.245,0,4.353-1.385,5.167-3.616l5.213-14.284l6.84,14.7c0.933,2.003,2.917,3.181,4.99,3.181c0.777,0,1.566-0.166,2.317-0.515
		c2.754-1.282,3.948-4.553,2.667-7.307l-11.48-24.674l1.593-4.366l4.367,1.594l11.48,24.673c0.932,2.003,2.917,3.181,4.99,3.181
		c0.777,0,1.566-0.166,2.317-0.515c2.754-1.282,3.948-4.553,2.667-7.307l-6.84-14.699l14.284,5.212
		c0.622,0.228,1.259,0.335,1.885,0.335c2.245,0,4.353-1.385,5.167-3.616c1.042-2.854-0.428-6.011-3.281-7.052l-14.284-5.213
		l14.7-6.84c2.754-1.282,3.948-4.553,2.667-7.307c-1.282-2.754-4.554-3.949-7.307-2.667l-24.674,11.48l-4.367-1.594l1.594-4.367
		l24.673-11.48c2.754-1.282,3.948-4.553,2.667-7.307c-1.282-2.755-4.554-3.949-7.307-2.667l-14.7,6.84l5.213-14.284
		c1.042-2.854-0.428-6.011-3.281-7.052c-2.853-1.044-6.011,0.428-7.052,3.281l-5.212,14.284l-6.84-14.7
		c-1.282-2.754-4.554-3.948-7.307-2.667c-2.754,1.282-3.948,4.553-2.667,7.307l11.481,24.673l-1.594,4.367l-4.367-1.594
		l-11.481-24.674c-1.281-2.754-4.555-3.947-7.307-2.667c-2.754,1.282-3.948,4.553-2.667,7.307l6.84,14.7l-14.284-5.213
		c-2.853-1.042-6.011,0.428-7.052,3.281C91.541,101.479,93.01,104.636,95.863,105.677z"/>
	<path d="M242.743,122.552l88.77,32.394c0.622,0.228,1.259,0.335,1.885,0.335c2.245,0,4.353-1.385,5.167-3.616
		c1.042-2.854-0.428-6.011-3.281-7.052l-88.77-32.394c-2.853-1.042-6.011,0.428-7.052,3.281
		C238.42,118.354,239.89,121.511,242.743,122.552z"/>
	<path d="M233.23,148.62L322,181.013c0.622,0.228,1.259,0.335,1.885,0.335c2.245,0,4.353-1.385,5.167-3.616
		c1.042-2.854-0.428-6.011-3.281-7.052l-88.77-32.394c-2.854-1.044-6.011,0.428-7.052,3.281
		C228.908,144.422,230.377,147.579,233.23,148.62z"/>
	<path d="M223.718,174.687l88.77,32.394c0.622,0.228,1.259,0.335,1.885,0.335c2.245,0,4.353-1.385,5.167-3.616
		c1.042-2.854-0.428-6.011-3.281-7.052l-88.77-32.394c-2.853-1.043-6.011,0.428-7.052,3.281
		C219.396,170.489,220.865,173.646,223.718,174.687z"/>
</g>
<g>
</g>
<g>
</g>
<g>
</g>
<g>
</g>
<g>
</g>
<g>
</g>
<g>
</g>
<g>
</g>
<g>
</g>
<g>
</g>
<g>
</g>
<g>
</g>
<g>
</g>
<g>
</g>
<g>
</g>
</svg>
